<?xml version="1.0" standalone="no"?>
<!DOCTYPE svg PUBLIC "-//W3C//DTD SVG 20010904//EN"
 "http://www.w3.org/TR/2001/REC-SVG-20010904/DTD/svg10.dtd">
<svg version="1.0" xmlns="http://www.w3.org/2000/svg"
 width="427.000000pt" height="1280.000000pt" viewBox="0 0 427.000000 1280.000000"
 preserveAspectRatio="xMidYMid meet">
<metadata>
Created by potrace 1.15, written by Peter Selinger 2001-2017
</metadata>
<g transform="translate(0.000000,1280.000000) scale(0.100000,-0.100000)"
fill="#000000" stroke="none">
<path d="M1690 12792 c-8 -5 -37 -13 -65 -17 -60 -8 -161 -48 -189 -74 -12
-10 -43 -30 -71 -44 -27 -14 -59 -35 -70 -47 l-20 -23 25 8 c22 7 23 6 12 -7
-7 -9 -27 -22 -45 -28 -41 -17 -190 -122 -242 -171 -26 -25 -66 -48 -110 -64
l-70 -25 62 5 c62 5 62 4 54 -18 -30 -78 -103 -220 -125 -242 -14 -14 -26 -28
-26 -31 0 -18 -63 -80 -108 -106 -30 -17 -50 -34 -45 -39 10 -10 84 11 134 37
19 9 44 18 56 20 11 1 30 5 42 9 28 9 27 4 -15 -95 -36 -86 -88 -289 -99 -390
-5 -52 -4 -49 26 43 18 53 37 97 42 97 6 0 7 -36 3 -92 -17 -239 -16 -227 -5
-180 6 23 14 40 18 38 4 -3 14 20 21 52 21 99 29 93 30 -22 0 -60 3 -106 7
-102 4 3 10 80 14 169 7 162 7 164 40 217 18 29 35 48 37 41 2 -6 -3 -42 -12
-79 -8 -37 -17 -96 -20 -132 -2 -36 -2 -54 1 -40 2 14 9 30 15 35 8 7 9 4 4
-8 -3 -11 -3 -24 1 -30 4 -7 15 11 25 43 l17 55 0 -66 c1 -45 -7 -87 -24 -137
-14 -39 -25 -78 -25 -87 0 -21 -46 -123 -65 -141 -16 -17 -21 -39 -6 -30 5 4
7 -4 3 -16 -5 -21 -4 -22 11 -9 9 7 17 10 17 5 0 -4 11 3 24 15 l24 22 5 -23
c4 -13 4 -35 1 -48 l-6 -25 23 25 22 25 -7 -25 c-16 -56 -18 -65 -13 -60 3 3
15 30 27 60 12 30 25 57 29 60 4 3 25 44 46 92 22 48 42 80 44 71 2 -13 5 -14
13 -2 6 9 7 -30 4 -111 -5 -98 -2 -147 13 -230 17 -96 17 -107 3 -130 -14 -23
-14 -24 0 -12 14 11 17 10 23 -8 4 -12 1 -28 -7 -38 -12 -15 -11 -16 5 -3 17
13 21 11 48 -20 43 -51 44 -63 5 -126 -19 -32 -37 -73 -41 -90 -4 -19 -18 -41
-33 -52 -44 -31 -180 -95 -287 -136 -55 -21 -124 -54 -153 -73 -71 -47 -146
-138 -193 -236 -22 -44 -42 -83 -47 -87 -4 -4 -41 -12 -82 -18 -80 -11 -104
-27 -117 -80 -3 -14 -20 -42 -37 -61 -30 -34 -32 -38 -29 -114 1 -43 5 -92 9
-109 13 -60 10 -98 -8 -108 -10 -5 -18 -18 -18 -28 0 -10 -9 -21 -21 -24 -15
-4 -20 -12 -17 -29 2 -14 -5 -30 -17 -40 -19 -15 -19 -17 -3 -35 14 -15 15
-22 6 -31 -9 -9 -9 -17 1 -35 11 -21 10 -30 -9 -67 -37 -72 -67 -161 -79 -234
-7 -38 -19 -83 -28 -100 -22 -43 -22 -169 0 -216 40 -84 95 -167 126 -187 73
-49 180 -15 275 87 62 68 81 115 95 240 9 79 16 97 112 290 l102 205 12 -70
c25 -145 75 -250 178 -378 54 -67 115 -189 143 -283 19 -67 15 -203 -11 -335
-15 -79 -92 -270 -126 -313 -10 -13 -19 -33 -19 -45 0 -11 -45 -122 -101 -247
-260 -585 -342 -832 -574 -1738 -128 -499 -294 -1273 -279 -1298 4 -6 39 -25
78 -43 39 -19 90 -47 113 -64 23 -16 65 -42 95 -56 29 -14 71 -36 93 -48 46
-24 229 -45 410 -47 61 -1 144 -7 185 -15 41 -8 109 -20 152 -27 l76 -12 18
-95 c18 -98 19 -114 14 -381 -3 -130 3 -200 33 -440 51 -403 109 -664 312
-1418 13 -51 29 -143 35 -205 6 -62 17 -158 25 -213 23 -156 19 -270 -14 -446
-16 -84 -32 -177 -36 -206 -4 -30 -13 -66 -21 -80 -8 -15 -14 -36 -14 -47 0
-11 -19 -57 -42 -103 -46 -94 -60 -168 -36 -204 8 -13 18 -36 22 -53 11 -43
31 -62 95 -86 77 -28 205 -28 282 0 54 20 96 55 117 96 18 36 41 149 51 250 9
86 8 103 -6 124 -13 20 -16 56 -17 180 l-1 156 32 55 c31 55 57 156 52 208 -2
15 1 52 5 83 15 106 -32 231 -99 261 -16 7 -29 25 -35 47 -19 65 -23 295 -11
583 6 155 14 348 17 426 4 79 10 140 14 135 21 -21 136 -396 204 -663 153
-599 176 -758 179 -1229 2 -437 5 -431 -181 -538 -67 -38 -85 -54 -89 -76 -4
-19 -16 -32 -38 -41 -33 -14 -65 -50 -65 -73 0 -6 7 -19 16 -27 14 -15 14 -17
-1 -32 -15 -16 -15 -26 6 -81 15 -40 101 -58 279 -58 172 0 247 16 361 77 88
46 107 72 135 183 14 53 34 117 46 141 13 29 18 53 13 71 -13 53 113 313 152
313 6 0 22 -22 36 -49 28 -51 57 -163 78 -296 13 -84 19 -96 50 -88 24 7 24
-1 -6 173 -34 195 -34 320 0 458 28 116 32 178 11 207 -7 11 -19 38 -26 60
-20 61 -65 120 -107 140 -21 9 -53 24 -70 32 -18 8 -48 32 -67 53 -58 64 -100
280 -130 660 -29 359 -36 487 -36 613 0 149 -19 266 -66 406 -76 228 -162 372
-329 550 -151 161 -178 205 -183 294 -4 65 -3 70 14 63 10 -4 70 -9 134 -12
63 -3 153 -14 200 -25 47 -10 159 -23 248 -29 89 -6 166 -11 170 -12 17 -5
192 45 203 58 13 16 34 184 48 384 13 180 6 606 -13 805 -19 202 -24 261 -37
465 -21 329 -72 644 -170 1055 -33 138 -62 256 -64 263 -3 9 3 10 20 6 20 -5
27 -1 36 19 8 17 17 23 30 20 33 -9 52 16 46 62 -7 52 13 152 37 188 17 25 53
36 69 21 3 -3 0 -22 -7 -42 -7 -21 -16 -65 -19 -99 -7 -64 5 -93 38 -93 25 0
62 50 63 85 2 42 41 130 76 172 15 18 54 47 87 65 70 37 115 86 130 143 26 96
51 141 218 393 98 147 196 299 219 338 47 78 180 361 219 464 13 36 43 105 65
154 39 86 41 92 29 134 -25 96 -87 178 -306 406 -262 273 -430 458 -627 691
-171 203 -362 402 -426 447 -144 99 -226 114 -464 79 -80 -11 -170 -21 -200
-21 -55 0 -98 19 -98 44 0 8 -6 19 -13 25 -17 14 -16 136 1 153 7 7 12 23 12
36 0 30 32 122 42 122 16 0 8 -41 -13 -69 -25 -34 -19 -67 13 -77 16 -5 27 0
40 16 17 22 17 23 -3 60 -15 26 -19 43 -12 56 5 11 8 45 7 76 0 31 3 55 8 52
4 -3 8 -13 8 -22 0 -10 6 -26 14 -37 7 -11 15 -29 17 -40 3 -11 11 -20 19 -20
8 0 17 -13 21 -30 l6 -30 7 28 c10 32 22 35 31 7 3 -11 15 -25 26 -30 16 -9
19 -7 19 12 0 21 0 21 16 2 15 -19 15 -19 5 1 -14 29 -51 188 -51 218 0 13 9
53 21 88 11 35 25 89 31 119 12 66 26 96 39 83 11 -11 40 -146 48 -228 l6 -60
8 64 c4 35 7 89 8 120 l1 56 13 -60 c8 -33 11 -79 8 -102 -4 -29 -2 -43 6 -43
7 0 11 -24 11 -67 0 -36 2 -64 4 -62 7 7 46 347 46 404 0 48 -15 176 -36 295
l-6 35 34 -32 c19 -18 37 -33 42 -33 4 0 24 -12 44 -27 l37 -27 -24 26 c-12
15 -20 32 -16 38 4 6 1 19 -7 28 -11 15 -11 15 2 6 8 -6 24 -14 35 -18 18 -6
18 -5 -2 11 -31 25 -69 84 -97 151 -20 48 -22 58 -10 62 12 4 10 11 -10 29
-14 13 -35 53 -47 89 -18 55 -19 66 -7 73 11 6 -3 26 -60 85 -48 50 -72 82
-69 93 3 12 -8 26 -30 41 -41 28 -67 67 -37 56 43 -17 -87 95 -214 183 -12 8
-19 18 -16 22 7 12 -29 28 -73 34 -79 10 -113 17 -113 25 0 24 -208 51 -240
32z m-150 -82 c11 -7 7 -10 -18 -10 -20 0 -31 4 -27 10 8 13 26 13 45 0z
m1020 -1195 c6 -29 10 -75 8 -102 -3 -47 -4 -47 -16 -20 -16 36 -27 192 -14
183 6 -3 16 -31 22 -61z m300 -1615 c20 -19 96 -89 168 -155 73 -66 184 -181
246 -255 172 -205 262 -301 359 -385 49 -42 93 -87 99 -100 9 -20 1 -41 -50
-142 -46 -88 -86 -194 -158 -413 -147 -448 -253 -706 -304 -742 -22 -15 -75
-27 -250 -58 -25 -4 -73 -10 -107 -14 l-63 -7 0 58 c0 32 -9 148 -19 258 -19
207 -17 390 8 580 5 44 15 145 21 225 6 80 13 156 15 170 9 47 35 384 35 455
0 84 -20 159 -63 234 -30 54 -31 56 -30 198 0 105 3 146 14 159 12 15 15 14
28 -7 9 -13 31 -40 51 -59z m-2607 -601 c-4 -13 -9 -17 -15 -11 -11 11 -3 32
12 32 4 0 6 -9 3 -21z m-21 -51 c-7 -7 -12 -8 -12 -2 0 14 12 26 19 19 2 -3
-1 -11 -7 -17z m2707 -1990 c-1 -41 -1 -42 -11 -15 -5 15 -7 34 -4 42 10 27
16 16 15 -27z"/>
<path d="M761 11374 c0 -11 3 -14 6 -6 3 7 2 16 -1 19 -3 4 -6 -2 -5 -13z"/>
</g>
</svg>
