<?xml version="1.0" standalone="no"?>
<!DOCTYPE svg PUBLIC "-//W3C//DTD SVG 20010904//EN"
 "http://www.w3.org/TR/2001/REC-SVG-20010904/DTD/svg10.dtd">
<svg version="1.0" xmlns="http://www.w3.org/2000/svg"
 width="913.000000pt" height="1280.000000pt" viewBox="0 0 913.000000 1280.000000"
 preserveAspectRatio="xMidYMid meet">
<metadata>
Created by potrace 1.15, written by Peter Selinger 2001-2017
</metadata>
<g transform="translate(0.000000,1280.000000) scale(0.100000,-0.100000)"
fill="#000000" stroke="none">
<path d="M4995 12795 c-5 -2 -35 -11 -66 -19 -93 -26 -203 -131 -421 -400 -41
-50 -69 -98 -95 -164 -30 -75 -47 -103 -86 -141 -75 -71 -78 -72 -187 -45
-112 27 -206 31 -237 9 -12 -9 -47 -56 -77 -106 -54 -91 -54 -91 -98 -94 -23
-1 -81 -18 -128 -37 -78 -33 -95 -36 -220 -41 -130 -6 -196 -18 -256 -50 -40
-21 -131 -118 -193 -204 -88 -122 -193 -369 -234 -548 -63 -275 -60 -252 -54
-484 4 -119 11 -254 16 -301 6 -47 15 -150 21 -230 10 -119 54 -373 107 -616
3 -12 -5 -40 -16 -62 -17 -34 -21 -59 -21 -147 0 -89 -6 -129 -35 -241 -19
-73 -37 -157 -40 -186 -10 -89 -27 -161 -51 -213 -36 -78 -104 -367 -104 -442
0 -21 -14 -55 -39 -93 -28 -43 -45 -85 -56 -138 -53 -245 -96 -392 -146 -497
-103 -221 -179 -397 -179 -420 0 -32 19 -45 122 -79 124 -42 135 -57 119 -163
-51 -322 -91 -467 -277 -1017 -139 -412 -157 -457 -222 -571 -25 -44 -65 -129
-89 -189 -23 -60 -55 -126 -71 -145 -66 -84 -120 -174 -197 -335 -71 -146
-101 -195 -207 -336 -156 -208 -214 -283 -309 -401 -169 -209 -215 -283 -284
-449 -61 -150 -444 -952 -465 -975 -26 -29 -46 -74 -55 -120 -4 -22 -29 -87
-55 -145 -53 -114 -58 -139 -65 -305 -2 -60 -11 -148 -20 -195 -27 -148 -29
-184 -11 -236 44 -130 159 -268 303 -364 76 -51 79 -52 141 -48 61 4 64 5 121
62 109 107 130 176 131 426 1 161 20 265 64 355 45 92 93 141 144 150 51 8 66
27 137 160 52 99 407 705 582 996 39 63 94 162 123 218 29 56 78 137 108 179
31 43 91 127 134 187 102 144 124 165 311 296 86 61 160 116 165 123 4 7 39
34 78 60 59 39 79 60 119 124 144 230 389 563 589 801 244 290 442 529 488
589 26 33 59 69 74 79 26 17 27 17 53 -13 14 -17 98 -125 185 -240 332 -435
602 -779 770 -979 42 -49 87 -106 101 -126 28 -39 85 -191 85 -224 0 -12 -20
-76 -45 -142 -24 -67 -49 -152 -55 -190 -24 -167 -41 -467 -50 -886 -10 -513
-25 -792 -45 -887 -8 -36 -28 -130 -45 -210 -17 -80 -48 -228 -70 -330 -21
-102 -46 -229 -55 -284 -9 -55 -43 -185 -79 -295 -53 -163 -66 -216 -76 -313
-7 -78 -8 -123 -1 -135 14 -26 111 -58 288 -93 234 -46 285 -42 330 26 28 44
58 32 154 -62 l88 -86 108 -24 c170 -37 525 -94 589 -94 33 0 104 -7 159 -15
55 -8 124 -15 153 -15 l52 0 0 98 c0 89 -2 100 -22 119 -13 12 -97 56 -188 99
-213 102 -219 106 -320 215 -172 186 -249 305 -258 401 -6 61 10 78 69 78 44
0 66 19 73 63 3 18 21 250 41 517 37 495 79 995 95 1130 24 203 43 335 65 435
94 438 117 549 145 697 45 248 59 358 66 513 l6 140 -78 130 c-134 225 -275
554 -424 989 -39 115 -130 354 -201 532 -72 178 -133 339 -136 358 -4 25 2 47
22 84 31 57 31 78 -4 272 -23 128 -57 353 -101 660 -94 653 -98 681 -195 1274
-26 158 -26 159 -10 290 23 195 81 557 94 590 l11 28 78 -5 c192 -13 895 -83
1020 -102 147 -22 444 -15 617 16 82 14 98 27 129 103 14 36 38 95 52 131 l26
65 48 0 c27 0 82 -4 122 -9 40 -5 173 -17 294 -27 212 -17 224 -17 279 0 62
20 130 67 150 106 31 58 104 227 111 255 4 17 22 57 40 91 19 33 34 71 34 83
0 54 13 61 119 61 107 0 156 12 172 41 5 10 18 47 29 82 36 116 77 136 239
117 127 -15 256 -16 293 -1 22 8 31 22 44 68 9 32 25 71 36 86 24 34 34 97 20
124 -6 11 -29 32 -52 48 l-41 29 -48 -18 c-45 -16 -60 -16 -232 -2 -197 17
-372 39 -429 55 -19 5 -88 17 -153 26 -65 9 -143 25 -173 36 -52 20 -57 20
-101 5 -26 -9 -54 -16 -63 -16 -26 0 -54 -26 -55 -51 -4 -68 -27 -128 -60
-154 -24 -17 -41 -44 -56 -86 -19 -53 -29 -65 -79 -99 -59 -40 -93 -76 -121
-127 -20 -37 -66 -48 -136 -33 -26 6 -75 15 -108 20 -33 5 -85 16 -115 25 -30
9 -98 20 -150 24 -79 7 -105 14 -156 42 l-60 33 -72 -14 c-67 -12 -76 -12
-151 10 -66 19 -91 21 -148 15 -88 -10 -135 -8 -261 12 -91 14 -111 21 -164
57 l-60 40 -94 -2 c-85 -2 -101 1 -158 27 -101 46 -106 71 -46 254 44 132 50
143 126 205 28 23 57 56 64 74 8 18 38 85 67 148 48 102 62 123 127 185 81 78
96 109 96 206 0 48 -5 63 -32 100 -44 59 -70 102 -111 179 -19 36 -53 87 -74
113 -22 27 -64 91 -92 143 -61 109 -89 134 -198 173 -43 16 -91 34 -106 40
-16 6 -41 11 -57 11 -16 0 -53 10 -82 21 -77 31 -272 58 -313 44z"/>
</g>
</svg>
